<svg width="20" height="20" viewBox="0 0 20 20" fill="none" xmlns="http://www.w3.org/2000/svg">
<path d="M3.89539 6.24226C3.91524 6.04709 3.83916 5.85193 3.69361 5.71962L2.20178 3.92016V3.65222H6.83936L10.4251 11.5149L13.5774 3.65222H18V3.92016L16.7232 5.14406C16.614 5.22675 16.5578 5.36568 16.5809 5.5013V14.4986C16.5578 14.6342 16.614 14.7732 16.7232 14.8559L17.9702 16.0798V16.3477H11.6953V16.0798L12.9886 14.8261C13.1143 14.7004 13.1143 14.6607 13.1143 14.4688V7.19822L9.51871 16.3245H9.03246L4.85135 7.19822V13.3144C4.81497 13.5724 4.90097 13.8304 5.0829 14.0157L6.76328 16.0533V16.3212H2V16.0566L3.68038 14.0157C3.859 13.8304 3.9417 13.5691 3.89539 13.3144V6.24226Z" fill="#EDEDF5"/>
</svg>
